<svg id="Capa_1" enable-background="new 0 0 511.992 511.992" height="512" viewBox="0 0 511.992 511.992" width="512" xmlns="http://www.w3.org/2000/svg"><g><path d="m265.888 334.161c22.613-26.99 33.606-51.721 33.606-75.605 0-43.567-35.445-79.012-79.012-79.012-22.754 0-44.422 9.843-59.45 27.004l-11.285 12.888-11.285-12.888c-15.027-17.161-36.696-27.004-59.45-27.004-43.567 0-79.012 35.445-79.012 79.012 0 23.885 10.993 48.615 33.606 75.605 24.805 29.606 63.854 61.523 116.141 94.941 52.287-33.417 91.336-65.334 116.141-94.941z"/><path d="m384.877 65.14c-38.146 0-72.342 16.826-95.641 43.433-23.299-26.607-57.495-43.433-95.641-43.433-55.266 0-102.283 35.273-119.793 84.531 27.139-1.285 55.258 8.32 75.945 25.97 19.611-16.732 44.655-26.098 70.735-26.098 60.109 0 109.012 48.902 109.012 109.012 0 30.79-13.663 62.709-40.61 94.872-15.066 17.982-34.18 36.173-57.7 54.864 17.691 12.534 37.003 25.381 58.052 38.56 163.211-102.189 222.756-184.532 222.756-254.597 0-70.202-56.911-127.114-127.115-127.114z"/></g></svg>