<svg height="511pt" viewBox="-33 0 511 511.99971" width="511pt" xmlns="http://www.w3.org/2000/svg"><path d="m148.191406 361.507812h150v-90.296874h-150zm75-60.199218c8.285156 0 15 6.738281 15 15.050781 0 8.308594-6.714844 15.046875-15 15.046875-8.28125 0-15-6.738281-15-15.046875 0-8.3125 6.71875-15.050781 15-15.050781zm0 0"/><path d="m430.886719 60.519531c-79.003907 0-126.828125-14.765625-153.035157-27.152343-26.6875-12.617188-36.757812-25.304688-37.664062-26.5-5.449219-8.554688-17.375-9.320313-23.886719-1.148438-.875.976562-13.015625 14.144531-42.363281 27.191406-28.332031 12.597656-78.816406 27.613282-158.4375 27.613282-8.285156 0-15 6.734374-15 15.046874v240.789063c0 61.246094 38.625 114.605469 111.703125 154.320313 49.652344 26.984374 105.085937 41.320312 110.988281 41.320312 5.265625 0 60.136719-13.683594 110.992188-41.320312 73.074218-39.714844 111.703125-93.078126 111.703125-154.320313v-240.789063c0-8.3125-6.71875-15.050781-15-15.050781zm-102.695313 316.035157c0 8.3125-6.714844 15.050781-15 15.050781h-180c-8.28125 0-15-6.738281-15-15.050781v-120.394532c0-8.308594 6.71875-15.046875 15-15.046875h15.046875v-45.652343c0-39.855469 31.730469-74.742188 75.40625-74.742188 41.082031 0 74.5 33.53125 74.5 74.742188 0 8.3125-6.714843 15.050781-15 15.050781-8.28125 0-15-6.738281-15-15.050781 0-23.515626-18.53125-44.644532-45.40625-44.644532-24.535156 0-44.5 20.03125-44.5 44.644532v45.652343h134.953125c8.285156 0 15 6.738281 15 15.046875zm0 0"/></svg>