<svg id="Layer_1" enable-background="new 0 0 512 512" height="512" viewBox="0 0 512 512" width="512" xmlns="http://www.w3.org/2000/svg"><path d="m347.05 127.782 111.13 111.13c32.257-19.515 53.82-54.929 53.82-95.381 0-61.524-49.875-111.4-111.4-111.4h-289.2c-61.525.001-111.4 49.876-111.4 111.4s49.875 111.4 111.4 111.4h158.827v-95.333c0-18.266 10.904-34.585 27.78-41.575 20.956-8.678 39.659.372 49.043 9.759z"/><path d="m325.833 148.992c-4.289-4.291-10.743-5.573-16.347-3.252-5.605 2.322-9.26 7.792-9.26 13.858v257.066c0 6.067 3.654 11.537 9.26 13.858 5.19 2.15 11.744 1.352 16.347-3.252l59.419-59.419 42.562 102.753c3.17 7.654 11.945 11.287 19.599 8.118 7.653-3.17 11.288-11.945 8.118-19.599l-42.562-102.753h84.031c6.067 0 11.536-3.655 13.858-9.26 2.321-5.605 1.038-12.057-3.252-16.347z"/></svg>