<svg id="Capa_1" enable-background="new 0 0 512.024 512.024" height="512" viewBox="0 0 512.024 512.024" width="512" xmlns="http://www.w3.org/2000/svg"><path d="m444.552 399.562v-31.088c0-103.961-84.579-188.54-188.54-188.54s-188.54 84.579-188.54 188.54v31.088h37.472v-31.088c0-83.299 67.769-151.068 151.068-151.068 83.3 0 151.068 67.769 151.068 151.068v31.088z"/><path d="m256.013 112.462c-68.383 0-132.674 26.63-181.028 74.984-48.355 48.355-74.985 112.645-74.985 181.028v31.088h37.472v-31.088c0-120.503 98.037-218.54 218.54-218.54s218.54 98.037 218.54 218.54v31.088h37.472v-31.088c0-68.383-26.63-132.673-74.984-181.028-48.354-48.354-112.644-74.984-181.027-74.984z"/><path d="m377.081 399.562v-31.088c0-66.757-54.312-121.068-121.068-121.068-66.757 0-121.068 54.311-121.068 121.068v31.088h37.472v-31.088c0-46.095 37.501-83.596 83.596-83.596 46.096 0 83.597 37.501 83.597 83.596v31.088z"/></svg>