<svg height="512" viewBox="0 0 32 32" width="512" xmlns="http://www.w3.org/2000/svg"><g id="_x30_3"><path d="m11.5527344 8.8911743c1.4672851.7355957 2.9633789 1.1088257 4.4472656 1.1088257 1.4833984 0 2.9794922-.37323 4.4472656-1.1088257.4453125-.2233276.6591797-.7410278.5009766-1.2145996l-2-4.9906616c-.0908203-.2757568-.2978516-.4981079-.5654297-.6092529-.2685547-.1112061-.5712891-.1014404-.8300781.0293579l-1.5527344.7787475-1.5527344-.7787476c-.2592773-.130249-.5615234-.1400757-.8300781-.0293579-.2675781.111145-.4741211.3334961-.565918.6092529l-2 4.9906616c-.1572265.4735719.0561524.9912721.5014649 1.2145997z"/><path d="m16 13c2.3457031 0 10-.2163086 10-3 0-.7871094-.4636841-1.8649292-4.081604-2.5230713.2327271.9405518-.1890869 1.8903809-1.0228882 2.3082275-1.6083984.8061524-3.2548828 1.2148438-4.8955078 1.2148438s-3.2880859-.4086914-4.8955078-1.2148438c-.8466797-.4242554-1.2703857-1.3994751-1.02948-2.3068848-3.6116943.6583253-4.0750122 1.7351685-4.0750122 2.5217286 0 2.7836914 7.6542969 3 10 3z"/><path d="m29 26.0283203h-26c-.5522461 0-1 .4477539-1 1 0 1.6386719 1.3330078 2.9716797 2.9716797 2.9716797h22.0566406c1.6386719 0 2.9716797-1.3330078 2.9716797-2.9716797 0-.5522461-.4477539-1-1-1z"/><path d="m28 14c0-1.102356-.8921509-1.9957886-1.9936523-1.9993286-1.9066773 1.6049805-6.2282105 1.9993286-10.0063477 1.9993286-3.777771 0-8.0995483-.3944092-10.0062866-1.9993896-1.1016846.00354-1.9937134.8969726-1.9937134 1.9993896v11h24zm-14.2929687 7.2929688c.390625.390625.390625 1.0234375 0 1.4140625-.1953125.1953125-.4511719.2929687-.7070313.2929687s-.5117188-.0976563-.7070313-.2929688l-2-2c-.390625-.390625-.390625-1.0234375 0-1.4140625l2-2c.390625-.390625 1.0234375-.390625 1.4140625 0s.390625 1.0234375 0 1.4140625l-1.2929687 1.2929688zm8-.5859375-2 2c-.1953125.1953125-.4511719.2929687-.7070313.2929687s-.5117188-.0976563-.7070313-.2929688c-.390625-.390625-.390625-1.0234375 0-1.4140625l1.2929688-1.2929687-1.2929688-1.2929688c-.390625-.390625-.390625-1.0234375 0-1.4140625s1.0234375-.390625 1.4140625 0l2 2c.3906251.3906251.3906251 1.0234376.0000001 1.4140626z"/></g></svg>