<svg id="Layer_1" height="512" viewBox="0 0 48 48" width="512" xmlns="http://www.w3.org/2000/svg"><g><g><path d="m9.2 5.7 4.6-3.5-1.2-1.6-5 3.8c-.2.2-.4.5-.4.8v6.1h2z"/></g><g><path d="m46.9 20c-.4-.2-.8-.1-1.1.2l-8.6 8.1v-7.4c0-.4-.2-.8-.6-.9-.4-.2-.8-.1-1.1.2l-8.6 8.1v-7.4c0-.4-.2-.8-.6-.9-.4-.2-.8-.1-1.1.2l-8.9 8.4h-2l-1.5-15.1c-.1-.5-.5-.9-1-.9h-7.2c-.5 0-.9.4-1 .9l-3.1 32.8c0 .3.1.6.3.8s.5.3.7.3h45c.6 0 1-.4 1-1v-25.5c0-.4-.2-.7-.6-.9zm-13.2 19.4h-4.2v-2h4.2zm9.3 0h-4.2v-2h4.2z" /></g><g><g><path d="m19.3 37.4h4.2v2h-4.2z" /></g></g></g></svg>