<?xml version="1.0" encoding="utf-8"?>
<!-- Generator: Adobe Illustrator 26.5.3, SVG Export Plug-In . SVG Version: 6.00 Build 0)  -->
<svg version="1.1" id="svg5" xmlns:svg="http://www.w3.org/2000/svg"
	 xmlns="http://www.w3.org/2000/svg" xmlns:xlink="http://www.w3.org/1999/xlink" x="0px" y="0px" viewBox="0 0 512 512"
	 style="enable-background:new 0 0 512 512;" xml:space="preserve">
<g id="layer1">
	<path id="path27592" d="M53.7,24.8c-19,0-34.7,15.7-34.7,34.7v393.1c0,19,15.7,34.7,34.7,34.7h242.9c-8.1-10.8-12.6-24.3-11.8-38.3
		v-0.1c0.4-23.9-1-48.7,0.7-74.1c0-0.3,0.1-0.6,0.1-1c3.3-21.8,19.7-39,40.5-45.2c1.4-31.2,21.3-60.2,52.1-69.1
		c6.8-2.1,13.9-3.2,20.9-3.3c0.4,0,0.9,0,1.3,0c0.4,0,0.9,0,1.3,0c3.4,0.1,6.9,0.4,10.3,0.9v-93.5H308c-19,0-34.7-15.7-34.7-34.7
		v-104L53.7,24.8z M296.5,31.6v97.3c0,6.5,5,11.6,11.6,11.6h97.3L296.5,31.6z M117.3,140.4h104c6.4,0,11.6,5.2,11.6,11.6
		s-5.2,11.6-11.6,11.6l0,0h-104c-6.4,0-11.6-5.2-11.6-11.6l0,0C105.7,145.6,110.9,140.4,117.3,140.4z M117.3,209.8H308
		c6.4,0,11.6,5.2,11.6,11.6s-5.2,11.6-11.6,11.6H117.3c-6.4,0-11.6-5.2-11.6-11.6C105.7,214.9,110.9,209.8,117.3,209.8L117.3,209.8
		L117.3,209.8z M117.3,279.1h144.5c6.4,0,11.6,5.2,11.6,11.6s-5.2,11.6-11.6,11.6H117.3c-6.4,0-11.6-5.2-11.6-11.6
		C105.7,284.3,110.9,279.1,117.3,279.1z M400.5,279.1c-28.6,0-52,23.4-52,52v17.3h-5.8c-19,0-34.7,15.7-34.7,34.7v69.4
		c0,19,15.7,34.7,34.7,34.7h115.6c19,0,34.7-15.7,34.7-34.7v-69.4c0-19-15.7-34.7-34.7-34.7h-5.8v-17.3
		C452.5,302.5,429.1,279.1,400.5,279.1L400.5,279.1z M400.5,302.2c16.2,0,28.9,12.7,28.9,28.9v17.3h-57.8v-17.3
		C371.6,314.9,384.3,302.2,400.5,302.2z M117.3,348.5h121.4c6.4,0,11.6,5.2,11.6,11.6l0,0c0,6.4-5.2,11.6-11.6,11.6H117.3
		c-6.4,0-11.6-5.2-11.6-11.6C105.7,353.7,110.9,348.5,117.3,348.5L117.3,348.5z M400.5,393.4c6.4,0,11.6,5.2,11.6,11.6v25.7
		c0,6.4-5.2,11.6-11.6,11.6c-6.4,0-11.6-5.2-11.6-11.6V405C389,398.6,394.1,393.4,400.5,393.4L400.5,393.4z"/>
</g>
</svg>
