<?xml version="1.0" encoding="utf-8"?>
<!-- Generator: Adobe Illustrator 26.5.3, SVG Export Plug-In . SVG Version: 6.00 Build 0)  -->
<svg version="1.1" id="Layer_1" xmlns="http://www.w3.org/2000/svg" xmlns:xlink="http://www.w3.org/1999/xlink" x="0px" y="0px"
	 viewBox="0 0 469.3 469.3" style="enable-background:new 0 0 469.3 469.3;" xml:space="preserve">
<g>
	<g>
		<g>
			<path d="M418.2,10.3H51.1c-22.5,0-40.8,18.3-40.8,40.8v61.2c0,22.5,18.3,40.8,40.8,40.8h367.1c22.5,0,40.8-18.3,40.8-40.8V51.1
				C459,28.6,440.7,10.3,418.2,10.3z M91.9,102.1c0,5.6-4.6,10.2-10.2,10.2c-5.6,0-10.2-4.6-10.2-10.2V61.3
				c0-5.6,4.6-10.2,10.2-10.2c5.6,0,10.2,4.6,10.2,10.2L91.9,102.1L91.9,102.1z M132.7,102.1c0,5.6-4.6,10.2-10.2,10.2
				c-5.6,0-10.2-4.6-10.2-10.2V61.3c0-5.6,4.6-10.2,10.2-10.2c5.6,0,10.2,4.6,10.2,10.2V102.1z M173.5,102.1
				c0,5.6-4.6,10.2-10.2,10.2s-10.2-4.6-10.2-10.2V61.3c0-5.6,4.6-10.2,10.2-10.2c5.6,0,10.2,4.6,10.2,10.2L173.5,102.1L173.5,102.1
				z M316.2,102.1c-11.2,0-20.4-9.2-20.4-20.4s9.2-20.4,20.4-20.4c11.2,0,20.4,9.2,20.4,20.4S327.5,102.1,316.2,102.1z M377.4,102.1
				c-11.2,0-20.4-9.2-20.4-20.4s9.2-20.4,20.4-20.4c11.2,0,20.4,9.2,20.4,20.4S388.7,102.1,377.4,102.1z"/>
			<path d="M418.2,163.3H51.1c-22.5,0-40.8,18.3-40.8,40.8v61.2c0,22.5,18.3,40.8,40.8,40.8h367.1c22.5,0,40.8-18.3,40.8-40.8v-61.2
				C459,181.6,440.7,163.3,418.2,163.3z M91.9,255.1c0,5.6-4.6,10.2-10.2,10.2c-5.6,0-10.2-4.6-10.2-10.2v-40.8
				c0-5.6,4.6-10.2,10.2-10.2c5.6,0,10.2,4.6,10.2,10.2L91.9,255.1L91.9,255.1z M132.7,255.1c0,5.6-4.6,10.2-10.2,10.2
				c-5.6,0-10.2-4.6-10.2-10.2v-40.8c0-5.6,4.6-10.2,10.2-10.2c5.6,0,10.2,4.6,10.2,10.2V255.1z M173.5,255.1
				c0,5.6-4.6,10.2-10.2,10.2s-10.2-4.6-10.2-10.2v-40.8c0-5.6,4.6-10.2,10.2-10.2c5.6,0,10.2,4.6,10.2,10.2L173.5,255.1
				L173.5,255.1z M316.2,255.1c-11.2,0-20.4-9.2-20.4-20.4s9.2-20.4,20.4-20.4c11.2,0,20.4,9.2,20.4,20.4S327.5,255.1,316.2,255.1z
				 M377.4,255.1c-11.2,0-20.4-9.2-20.4-20.4s9.2-20.4,20.4-20.4c11.2,0,20.4,9.2,20.4,20.4S388.7,255.1,377.4,255.1z"/>
			<path d="M418.2,316.2H51.1c-22.5,0-40.8,18.3-40.8,40.8v61.2c0,22.5,18.3,40.8,40.8,40.8h367.1c22.5,0,40.8-18.3,40.8-40.8V357
				C459,334.5,440.7,316.2,418.2,316.2z M91.9,408c0,5.6-4.6,10.2-10.2,10.2c-5.6,0-10.2-4.6-10.2-10.2v-40.8
				c0-5.6,4.6-10.2,10.2-10.2c5.6,0,10.2,4.6,10.2,10.2L91.9,408L91.9,408z M132.7,408c0,5.6-4.6,10.2-10.2,10.2
				c-5.6,0-10.2-4.6-10.2-10.2v-40.8c0-5.6,4.6-10.2,10.2-10.2c5.6,0,10.2,4.6,10.2,10.2V408z M173.5,408c0,5.6-4.6,10.2-10.2,10.2
				s-10.2-4.6-10.2-10.2v-40.8c0-5.6,4.6-10.2,10.2-10.2c5.6,0,10.2,4.6,10.2,10.2L173.5,408L173.5,408z M316.2,408
				c-11.2,0-20.4-9.2-20.4-20.4c0-11.2,9.2-20.4,20.4-20.4c11.2,0,20.4,9.2,20.4,20.4C336.6,398.9,327.5,408,316.2,408z M377.4,408
				c-11.2,0-20.4-9.2-20.4-20.4c0-11.2,9.2-20.4,20.4-20.4c11.2,0,20.4,9.2,20.4,20.4C397.8,398.9,388.7,408,377.4,408z"/>
		</g>
	</g>
</g>
</svg>
