<?xml version="1.0" encoding="utf-8"?>
<!-- Generator: Adobe Illustrator 26.5.3, SVG Export Plug-In . SVG Version: 6.00 Build 0)  -->
<svg version="1.1" id="Bahan_copy_2" xmlns="http://www.w3.org/2000/svg" xmlns:xlink="http://www.w3.org/1999/xlink" x="0px"
	 y="0px" viewBox="0 0 64 64" style="enable-background:new 0 0 64 64;" xml:space="preserve">
<g>
	<path d="M39.3,43.2c-4,3.7-10.1,3.7-14.1,0c-1.2,0.6-2.3,1.4-3.3,2.3c-2.8,2.4-4.3,5.9-4.4,9.6v2.3c0,1.6,1.3,3,3,3h23.5
		c1.6,0,3-1.3,3-3C47.5,51.2,45,46,39.3,43.2z"/>
	<path d="M32.3,27.3c-4.5,0-8.2,3.7-8.2,8.2c0.4,10.8,16,10.8,16.4,0C40.5,31,36.8,27.3,32.3,27.3z"/>
	<path d="M58.3,31.6c-2.7,2.8-6.9,3.5-10.3,1.5c-0.7-0.4-1.3-0.9-1.8-1.5c-1.4,0.9-2.6,2.2-3.5,3.6c-1,1.9-1.4,4-1.2,6.1
		c0,1.3,1.1,2.4,2.4,2.4h16.6c1.3,0,2.4-1.1,2.4-2.4c0,0,0,0,0,0v-1.6C62.9,36.4,61.2,33.3,58.3,31.6z"/>
	<path d="M52.3,32c8.1-0.3,8.1-11.9,0-12.2C44.2,20.1,44.2,31.8,52.3,32z"/>
	<path d="M22.5,41.4v-1.6c0-3.3-1.8-6.4-4.6-8.1c-3.1,3.4-8.3,3.6-11.7,0.4c-0.2-0.1-0.3-0.3-0.4-0.4c-2.8,1.7-4.6,4.8-4.6,8.1v1.6
		c0,1.3,1.1,2.4,2.4,2.4c0,0,0,0,0,0H20C21.4,43.8,22.5,42.7,22.5,41.4z"/>
	<path d="M11.7,32c8.1-0.2,8.1-12,0-12.2C3.7,20.1,3.7,31.8,11.7,32z"/>
	<path d="M22.6,13.5l3.7,2.7l-1.4,4.4c-0.3,0.9,0,1.9,0.8,2.4c0.8,0.6,1.8,0.6,2.6,0l3.7-2.7l3.8,2.7c0.8,0.6,1.8,0.6,2.6,0
		c0.8-0.6,1.1-1.5,0.8-2.4l-1.4-4.4l3.8-2.7c1-0.7,1.2-2.1,0.4-3.1c-0.4-0.5-1-0.9-1.7-0.9l-4.6,0c0,0-1.4-4.4-1.4-4.4
		c-0.4-1.1-1.6-1.8-2.8-1.4c-0.6,0.2-1.1,0.7-1.4,1.4l-1.4,4.4h-4.7c-1.2,0-2.2,1-2.2,2.2C21.7,12.5,22,13.1,22.6,13.5z"/>
</g>
</svg>
