<?xml version="1.0" encoding="utf-8"?>
<!-- Generator: Adobe Illustrator 26.5.3, SVG Export Plug-In . SVG Version: 6.00 Build 0)  -->
<svg version="1.1" id="Layer_1" xmlns="http://www.w3.org/2000/svg" xmlns:xlink="http://www.w3.org/1999/xlink" x="0px" y="0px"
	 viewBox="0 0 512 512" >
<path d="M168.8,408.4c-0.3,2.8,0,5.6,1,8.5c2.5,6.9,8.2,12.5,15,14.6c6.3,2,12.6,0.7,14.5-1.4l13.2-14.2c3.8-4.1,4.8-10.6,2.5-17
	c-5.5-10.6-12.9-14.4-22.4-16.1L168.8,408.4z"/>
<path d="M151.1,337.6L128,362.3c-4.7,5.1-6,12.9-3.4,20.5c2.8,7.9,9.4,14.4,17.4,16.8c7.5,2.3,15.1,0.5,19.8-4.5l21.4-22.9
	c4.7-5.1,6-12.9,3.4-20.4c-2.8-8-9.5-14.4-17.4-16.8C162.9,332.9,155.5,332.8,151.1,337.6L151.1,337.6z"/>
<path d="M105.3,296.8L84,319.7c-4.7,5.1-6,12.9-3.4,20.5c2.8,7.9,9.4,14.4,17.4,16.8c7.5,2.3,15.1,0.5,17.5-2l23.7-25.4
	c4.7-5.1,6-12.9,3.4-20.4c-2.8-8-9.4-14.4-17.4-16.8C117.9,290,109.8,292.1,105.3,296.8z"/>
<path d="M86,252.2l-20.9,22.5c-4.2,4.5-5.3,11.4-3,18c2.4,7.1,8.3,12.8,15.4,14.9c6.6,2,13.4,0.4,15.4-1.8l20.9-22.5v0
	c4.2-4.4,5.3-11.4,3-18c-2.4-7.1-8.3-12.8-15.3-14.9C96.1,248.6,89.6,248.2,86,252.2L86,252.2z"/>
<path d="M370.4,100.2c-15.3,8.5-36.5,10.1-57.2,11.6c-15.6,1.1-31.8,2.2-43.4,6.5L205.3,142c-0.4,0.2-0.9,0.3-1.3,0.3
	c-3.1,0.5-6,0.9-8.6,1.3c-15.7,2.2-17.5,2.9-19.3,7.5c-1.6,4.3,0.2,10.5,4.6,15.8c3.6,4.3,17.9,17.8,47.2,10.9l36.7-4.9
	c20.6-2.7,37.1,10.8,50.2,21.6l98.8,79l0.1,0c19.5-8.2,39.9-18.8,57.2-39.6L370.4,100.2z"/>
<path d="M234.4,95.4c-5.9,0.5-12.6,1.3-19.6,2c-38.9,4.2-60.5,5.8-71.5,3.8L42.3,232.7c3.7,3.5,6.8,7.2,9.3,11.1
	c8.4-8.6,21.2-11.7,33.6-8c12.2,3.7,22.4,13.6,26.6,25.8c1.8,5.2,2.4,10.5,1.9,15.6c5-0.7,10.3-0.4,15.4,1.2
	c12.2,3.7,22.4,13.6,26.6,25.8c1.8,5.2,2.4,10.5,2,15.6c5-0.7,10.3-0.4,15.4,1.2c12.1,3.7,22.3,13.6,26.6,25.8
	c2.7,7.7,2.8,15.7,0.6,22.8c1.2,0.2,2.5,0.5,3.8,0.9c10.9,3.4,20.1,12.3,24.1,23.4c3.8,10.7,2.1,21.9-4.1,30l17.9,14.3
	c4.4,3.5,10.8,3.9,16.8,1c6.5-3.1,11.4-9.5,12.8-16.7c0.6-3,0.4-5.9-0.3-8.5l-22.7-18.2c-3.1-2.5-3.6-7-1.2-10.1
	c2.4-3.1,6.8-3.7,9.9-1.2l27.3,21.9c2.7,2.2,10.5,2.8,17.6-0.6c7.5-3.6,13.2-11,14.7-19.2c1.5-7.8-0.9-15.3-6.3-19.7l-24.7-19.8
	c-3.1-2.5-3.6-7-1.2-10.1c2.4-3.2,6.8-3.7,9.9-1.2l36,28.8c5.4,4.3,13.2,4.9,20.3,1.5c7.4-3.6,13.1-10.9,14.7-19.3
	c1.5-7.8-0.9-15.3-6.3-19.7l-36-28.7c-3.1-2.5-3.6-7-1.2-10.2c2.4-3.1,6.8-3.6,9.9-1.2c0,0,54.6,43.7,54.7,43.7
	c2.7,2.1,10.5,2.7,17.6-0.7c7.5-3.5,13.1-10.9,14.8-19.2c1.5-7.8-0.9-15.4-6.3-19.7L306,205.8c-12.3-10.1-24.9-20.5-39.6-18.5
	l-36,4.7c-24.3,5.8-47.1,0.1-60.4-15.6c-8-9.4-10.7-21.1-7.1-30.5c5-13,14.7-14.3,30.5-16.6c2.4-0.3,4.9-0.7,7.7-1.1l63.8-23.5
	c4.1-1.5,8.7-2.6,13.5-3.6C262.1,94.8,250.2,94.4,234.4,95.4L234.4,95.4z"/>
<path d="M95.7,70.5c-11.6-0.9-22.2,7.9-37.5,27.8l-39.1,50.9C5,167.5-0.3,178.9,0.8,188.6c0.9,8,6.5,15.8,12,20.2l18.5,14.8
	L132,92.6l-13-10.4C110,75,102.7,71,95.7,70.5L95.7,70.5z"/>
<path d="M418.5,70.3c-7,0.4-14.4,4.3-23.4,11.4l-13.2,10.2L481.2,224l12.8-10c11.1-8.6,16.8-16.3,17.8-24.3
	c1.3-9.7-3.8-21.2-17.8-39.8l-38.4-51.4C440.6,78.5,430.1,69.6,418.5,70.3L418.5,70.3z"/>
</svg>
