<?xml version="1.0" encoding="utf-8"?>
<!-- Generator: Adobe Illustrator 26.5.3, SVG Export Plug-In . SVG Version: 6.00 Build 0)  -->
<svg version="1.1" id="Layer_1" xmlns="http://www.w3.org/2000/svg" xmlns:xlink="http://www.w3.org/1999/xlink" x="0px" y="0px"
	 viewBox="0 0 512 512" style="enable-background:new 0 0 512 512;" xml:space="preserve">
<style type="text/css">
	.st0{fill-rule:evenodd;clip-rule:evenodd;}
</style>
<path class="st0" d="M491.7,261.4l20.3,12.8v96.4c0,35.7-15.7,66.4-44.7,87.2L391.8,512l-75.5-54.3c-29-20.8-44.7-51.5-44.7-87.2
	v-96.4l20.3-12.8C354.4,222,429.2,222,491.7,261.4L491.7,261.4z M172.8,359.1v68h95c-8.7-17-13.2-36.1-13.2-56.6v-11.4H172.8z
	 M155.8,359.1H31.1v37c0,8.5,3.5,16.2,9.1,21.9c5.6,5.6,13.4,9.1,21.9,9.1h93.7V359.1z M85,342.1v-68H31.1v68H85z M226.6,342.1v-68
	H102v68H226.6z M254.6,342.1v-68h-10.9v68H254.6z M314.5,189.1v41.4c40.2-16.8,83.3-20.1,124.7-9.9v-31.5L314.5,189.1L314.5,189.1z
	 M172.8,189.1v68h93.9c10.1-6.4,20.1-13,30.7-18.6v-49.4H172.8z M155.8,189.1H31.1v68h124.7V189.1z M85,172.1v-68H31.1v68H85z
	 M226.6,172.1v-68H102v68H226.6z M368.3,172.1v-68H243.6v68H368.3z M385.3,104.1v68h53.8v-68H385.3z M314.5,19.1v68h124.7v-37
	c0-8.5-3.5-16.2-9.1-21.9c-5.6-5.6-13.4-9.1-21.9-9.1H314.5z M172.8,19.1v68h124.7v-68H172.8z M31.1,87.1h124.7v-68H62.1
	c-8.5,0-16.2,3.5-21.9,9.1s-9.1,13.4-9.1,21.9L31.1,87.1z M391.8,343.2c-9.5,0-17.2,7.7-17.2,17.2c0,6.4,3.5,12,8.7,15v14.9
	c0,4.7,3.8,8.5,8.5,8.5s8.5-3.8,8.5-8.5v-14.9c5.2-3,8.7-8.6,8.7-15C409,350.9,401.3,343.2,391.8,343.2L391.8,343.2z M344.8,321.5
	h-9.9c-5,0-9,4.1-9,9v85.6c0,5,4.1,9,9,9h113.7c5,0,9-4.1,9-9v-85.6c0-5-4.1-9-9-9h-9.9V303c0-25.9-21.1-47-47-47
	c-25.9,0-47,21.1-47,47L344.8,321.5z M421.8,321.5V303c0-16.5-13.5-30-30-30s-30,13.5-30,30v18.5H421.8z"/>
</svg>
