<?xml version="1.0" encoding="utf-8"?>
<!-- Generator: Adobe Illustrator 26.5.3, SVG Export Plug-In . SVG Version: 6.00 Build 0)  -->
<svg version="1.1" id="Layer_1" xmlns="http://www.w3.org/2000/svg" xmlns:xlink="http://www.w3.org/1999/xlink" x="0px" y="0px"
	 viewBox="0 0 512 512" style="enable-background:new 0 0 512 512;" xml:space="preserve">
<g>
	<path d="M265.8,287.6l18-30.3l-29.1-29l-30.3,18c-10.6-6.4-22.1-11.4-34.5-14.4l-8.7-34h-41.1l-8.7,34.1
		c-12.4,3-23.9,7.9-34.5,14.4l-30.3-18l-29,29l17.9,30.3c-6.4,10.6-11.3,22.2-14.3,34.6L7,331V372l34.2,8.7c3,12.4,7.9,24,14.3,34.6
		l-17.9,30.3l29,29l30.3-18c10.6,6.4,22.1,11.4,34.5,14.4l8.7,34.1h41.1l8.7-34.1c12.4-3,23.9-7.9,34.5-14.4l30.3,18l29.1-29
		l-18-30.3c6.4-10.6,11.4-22.2,14.3-34.6l34.2-8.7V331l-34.2-8.7C277,309.8,272.2,298.2,265.8,287.6z M160.6,427.9
		c-42.2,0-76.5-34.2-76.5-76.5c0-42.1,34.2-76.5,76.5-76.5s76.5,34.3,76.5,76.5C237.1,393.6,202.8,427.9,160.6,427.9z"/>
	<path d="M485.5,247.8l19.4-12.7l-8.7-25.7l-23.1,1.8c-4.5-7.1-10-13.3-16.3-18.5l4.8-22.7L437.4,158l-15.1,17.6
		c-8-1.8-16.3-2.4-24.6-1.6L385,154.5l-25.7,8.7l1.8,23.1c-7.2,4.5-13.3,10-18.6,16.3l-22.6-4.8l-12,24.2l17.7,15.1
		c-1.8,8-2.4,16.2-1.6,24.6l-19.5,12.6l8.7,25.7l23.1-1.8c4.5,7.1,10,13.3,16.3,18.5l-4.8,22.7l24.2,11.9l15.1-17.6
		c8,1.8,16.3,2.4,24.6,1.6l12.6,19.5l25.7-8.7l-1.9-23.1c7.2-4.5,13.3-9.9,18.6-16.2l22.7,4.8l11.9-24.2l-17.7-15.1
		C485.6,264.3,486.2,256.1,485.5,247.8L485.5,247.8z M418.5,295.5c-22.5,7.7-46.9-4.4-54.6-27c-7.7-22.5,4.4-46.9,27-54.6
		c22.5-7.7,46.9,4.4,54.6,27C453.2,263.6,441,287.9,418.5,295.5L418.5,295.5z"/>
	<path d="M165.1,142.2l21.5-1.6c4.2,6.6,9.3,12.4,15.1,17.2l-4.5,21.1l22.5,11.2l14-16.4c7.5,1.7,15.1,2.2,22.9,1.5l11.7,18.1
		l23.9-8l-1.7-21.5c6.6-4.2,12.4-9.3,17.2-15.1l21.1,4.4l11.1-22.5l-16.4-14c1.7-7.4,2.3-15.1,1.5-22.9l18.1-11.7l-8-23.8l-21.5,1.6
		c-4.2-6.6-9.3-12.4-15.1-17.2l4.5-21l-22.5-11.2l-14,16.4c-7.5-1.7-15.1-2.2-22.9-1.5L231.9,7.1l-23.9,8l1.7,21.5
		c-6.6,4.2-12.4,9.3-17.2,15.1l-21.1-4.5l-11.1,22.5l16.4,14c-1.7,7.4-2.3,15.1-1.5,22.9l-18.1,11.7L165.1,142.2z M237.3,62.3
		c20.9-7.2,43.7,4.1,50.7,25.1c7.1,20.9-4.2,43.6-25.1,50.6c-20.9,7.2-43.7-4.1-50.7-25.1C205.2,92.1,216.4,69.4,237.3,62.3z"/>
</g>
</svg>
