<svg id="Layer_1" enable-background="new 0 0 34 34" height="512" viewBox="0 0 34 34" width="512" xmlns="http://www.w3.org/2000/svg"><g><g><g><path d="m32 3h-5c0-.4 0-.7 0-1.1 0-.5-.5-.9-1-.9h-18c-.5 0-1 .4-1 .9 0 .4-.1.7-.1 1.1h-4.9c-.6 0-1 .5-1 1v1.2c0 5.4 3.9 9.9 9.2 10.7.6 1 1.3 1.9 2 2.8h9.6c.8-.9 1.5-1.8 2-2.8 5.3-.9 9.2-5.4 9.2-10.7v-1.2c0-.5-.5-1-1-1zm-29 2.2v-.2h3.9c.1 3 .7 5.8 2 8.5-3.5-1.2-5.9-4.5-5.9-8.3zm18 4.6-1.4 1.4.3 2c.1.3-.1.6-.3.8-.1.1-.3.2-.5.2-.1 0-.3 0-.4-.1l-1.7-.9-1.7.9c-.3.2-.6.1-.9-.1s-.4-.5-.3-.8l.3-2-1.4-1.4c-.2-.2-.3-.6-.2-.9s.4-.5.7-.6l1.9-.3.9-1.8c.1-.3.4-.5.8-.5.3 0 .6.2.8.5l.9 1.8 1.9.3c.3.1.6.3.7.6-.1.3-.2.7-.4.9zm10-4.6c0 3.8-2.4 7.1-5.9 8.3 1.2-2.6 1.8-5.4 1.9-8.5h4zm-10.1 15.4h-7.8c0 1.6-.8 3.2-2.3 4.8-.3.3-.1.9.4.9h11.8c.5 0 .7-.6.4-.9-1.7-1.7-2.5-3.3-2.5-4.8z"/></g><g><path d="m24.1 28.4h-14.2c-.5 0-.9.4-.9.9v2.7c0 .6.4 1 1 1h14c.6 0 1-.4 1-1v-2.8c0-.4-.4-.8-.9-.8z"/></g></g></g></svg>