<?xml version="1.0" encoding="utf-8"?>
<!-- Generator: Adobe Illustrator 26.5.3, SVG Export Plug-In . SVG Version: 6.00 Build 0)  -->
<svg version="1.1" id="Layer_1" xmlns="http://www.w3.org/2000/svg" xmlns:xlink="http://www.w3.org/1999/xlink" x="0px" y="0px"
	 viewBox="0 0 512 512" style="enable-background:new 0 0 512 512;" xml:space="preserve">
<path d="M507.8,267.3L435.5,86.5l-1.1-2l-1.4-1.8c-0.2-0.2-0.2-0.2-0.2-0.5l-1.8-1.8c-0.1,0-0.1,0-0.2-0.1c0,0-0.1-0.1-0.1-0.2
	l-1.6-1.1l-0.5-0.5l-2-1.1h-0.5l-1.8-0.7h-0.5l-2.3-0.5h-6.8l-140.8,30.5V57.1c0-4.8-1.9-9.4-5.3-12.8c-3.4-3.4-8-5.3-12.8-5.3
	c-4.8,0-9.4,1.9-12.8,5.3c-3.4,3.4-5.3,8-5.3,12.8v57.9L89.4,148h-1.6l-2.3,0.9h-0.5l-1.8,0.9c0,0,0,0.1,0,0.1s0,0.1,0,0.1
	c0,0,0,0-0.1,0c0,0-0.1,0-0.1,0l-2,1.6c0,0.1,0,0.1-0.1,0.2c0,0-0.1,0.1-0.2,0.1l-1.4,1.6h-0.2c-0.6,0.6-1.1,1.3-1.4,2l-0.5,0.5
	l-0.9,2h-0.2L4.2,339.6c-0.9,2.2-1.3,4.5-1.4,6.8c0,52.7,55.4,72.3,90.4,72.3s90.4-19.7,90.4-72.3c0-2.3-0.5-4.6-1.4-6.8
	l-64.4-160.9l120-26.7v284.8h-36.2c-4.8,0-9.4,1.9-12.8,5.3s-5.3,8-5.3,12.8c0,4.8,1.9,9.4,5.3,12.8s8,5.3,12.8,5.3h108.5
	c4.8,0,9.4-1.9,12.8-5.3s5.3-8,5.3-12.8c0-4.8-1.9-9.4-5.3-12.8s-8-5.3-12.8-5.3h-36.2v-293l115.1-25.5l-59.4,149
	c-0.9,2.2-1.3,4.5-1.4,6.8c0,52.7,55.4,72.3,90.4,72.3s90.4-19.7,90.4-72.3C509.2,271.8,508.7,269.5,507.8,267.3L507.8,267.3z
	 M40.4,346.4l52.9-132.2l52.9,132.2H40.4z M365.9,274.1l52.9-132.2l52.9,132.2H365.9z"/>
</svg>
