<svg id="Bahan_copy_2" height="512" viewBox="0 0 64 64" width="512" xmlns="http://www.w3.org/2000/svg" data-name="Bahan copy 2"><g><path d="m44.12 51.31a2.99385 2.99385 0 0 1 -5.2-2.03v-3.56a5.25063 5.25063 0 0 1 -3.74-4.99v-9.23a5.23235 5.23235 0 0 1 5.23-5.22h8.69v-17.35a4.9335 4.9335 0 0 0 -4.93-4.93h-24.12a4.93353 4.93353 0 0 0 -4.93 4.93v3h8.47a5.2323 5.2323 0 0 1 5.23 5.22v9.24a5.226 5.226 0 0 1 -3.74 5v3.54a3.00026 3.00026 0 0 1 -5.2 2.04l-4.76-5.17v23.27a4.93356 4.93356 0 0 0 4.93 4.93h24.12a4.93353 4.93353 0 0 0 4.93-4.93v-9.09c-.07.03-4.98 5.33-4.98 5.33zm-18.55-41.28a1.00011 1.00011 0 0 1 0-2h13.08a1.0001 1.0001 0 0 1 0 2z"/><path d="m57.05 28.28h-16.64a3.22645 3.22645 0 0 0 -3.23 3.22v9.23a3.24475 3.24475 0 0 0 3.31 3.22.43992.43992 0 0 1 .43.43v4.9a1.00456 1.00456 0 0 0 1.73006.67994l4.78994-5.19994a2.4911 2.4911 0 0 1 1.83-.81h7.78a3.21791 3.21791 0 0 0 3.22-3.22v-9.23a3.21791 3.21791 0 0 0 -3.22-3.22zm-4.47 9.61-5.7 3.29a2.01151 2.01151 0 0 1 -3-1.73v-6.58a2 2 0 0 1 3-1.74l5.7 3.29a2.01857 2.01857 0 0 1 0 3.47z"/><path d="m21.35 35.61a1.00374 1.00374 0 0 0 1.73-.68v-4.89a.45659.45659 0 0 1 .51-.43 3.23289 3.23289 0 0 0 3.23-3.22v-9.24a3.23288 3.23288 0 0 0 -3.23-3.22h-16.64a3.22431 3.22431 0 0 0 -3.22 3.22v9.24a3.22432 3.22432 0 0 0 3.22 3.22h7.78a2.48158 2.48158 0 0 1 1.83.8zm-13.79-11.11a.99654.99654 0 0 1 1-1h13.42a1 1 0 0 1 0 2h-13.42a1.003 1.003 0 0 1 -1-1zm15.42-5.46a.9965.9965 0 0 1 -1 1h-13.42a1 1 0 0 1 0-2h13.42a1.00291 1.00291 0 0 1 1 1z"/><path d="m45.88 39.45 5.7-3.29-5.7-3.29z"/></g></svg>