<svg id="Layer_2_00000066476512007350253770000003037542557245264542_" enable-background="new 0 0 512 512" height="512" viewBox="0 0 512 512" width="512" xmlns="http://www.w3.org/2000/svg"><g id="Icon"><g id="Brace"><path id="Open_Brace" d="m18.5 220.7h34.3c6.5 0 11.5-1.5 15.1-4.4 3.5-2.9 6.2-6.2 7.8-9.9 1.8-4.2 2.9-9.1 3.2-14.5v-80.1c0-9.2 1.7-17.8 5.2-25.8 3.5-7.9 8.2-14.8 14.2-20.7 6-5.8 12.9-10.4 20.9-13.6s16.4-4.9 25.3-4.9h65.1v64.9h-65.1v81.4c0 5.6-.5 10.7-1.6 15.4s-2.5 9-4.3 12.8-3.9 7.3-6.1 10.4c-2.3 3.1-4.6 5.8-7 8.1-5.6 5.6-11.9 10-19.1 13.2 7.1 3 13.5 7.5 19.1 13.4 2.4 2.6 4.8 5.5 7 8.9 2.3 3.3 4.3 7.1 6.1 11.5 1.8 4.3 3.2 9.2 4.3 14.5s1.6 11.3 1.6 17.8v80.9h65.1v65.1h-65.1c-8.5 0-16.7-1.7-24.6-5s-14.9-7.9-21-13.7-10.9-12.7-14.5-20.6-5.4-16.5-5.4-25.8v-80.8c.1-8.3-1.1-14.8-3.7-19.3-2.7-4.5-5.6-7.9-9-10-3.9-2.4-8.4-3.9-13.4-4.3h-34.4z"/><path id="Close_Brace" d="m493.5 285.6h-34.5c-5 .5-9.5 1.9-13.4 4.3-1.7 1.1-3.3 2.4-4.9 4s-3 3.6-4.2 5.9c-1.2 2.4-2.2 5.1-2.8 8.3s-1 6.9-.8 11.1v80.8c0 9.2-1.8 17.8-5.5 25.8s-8.5 14.8-14.5 20.6-13 10.4-21 13.7c-7.9 3.3-16.1 5-24.6 5h-64.9v-65.1h64.9v-80.8c0-6.5.5-12.4 1.6-17.8s2.5-10.2 4.3-14.5 3.9-8.1 6.1-11.5c2.3-3.3 4.6-6.3 7-8.9 5.6-5.9 12-10.4 19.1-13.4-7.1-3.2-13.5-7.6-19.1-13.2-2.4-2.3-4.8-4.9-7-8.1s-4.3-6.6-6.1-10.4-3.2-8.1-4.3-12.8-1.6-9.8-1.6-15.4v-81.4h-64.9v-64.9h64.9c8.9 0 17.4 1.6 25.3 4.9s14.9 7.8 20.9 13.6 10.7 12.7 14.2 20.7c3.5 7.9 5.2 16.5 5.2 25.8v80.1c.3 5.4 1.4 10.3 3.2 14.5 1.7 3.6 4.2 6.9 7.7 9.9 3.5 2.9 8.5 4.4 15.2 4.4h34.5z"/></g></g></svg>