<svg id="Layer_1" enable-background="new 0 0 512 512" height="512" viewBox="0 0 512 512" width="512" xmlns="http://www.w3.org/2000/svg"><g><path d="m456.833 401.809c-25.219 0-46.525 17.017-53.077 40.167h-38.817c-14.486-42.59-74.875-42.563-89.344 0h-39.19c-14.486-42.59-74.875-42.563-89.344 0h-38.818c-18.347-60.762-106.838-49.179-108.243 15.001 1.411 64.19 89.907 75.75 108.244 14.999h38.818c14.485 42.59 74.875 42.562 89.344 0h39.19c14.485 42.59 74.875 42.562 89.344 0h38.817c18.356 60.77 106.839 49.171 108.244-15.001-.001-30.418-24.749-55.166-55.168-55.166z"/><path d="m321.333 145.624-160.666-92.761-65.333 37.72 160.666 92.762z"/><path d="m416.666 90.583-153.166-88.43c-4.641-2.68-10.359-2.68-15 0l-57.833 33.39 160.666 92.761z"/><path d="m87.833 306.416 153.167 88.431v-185.522l-160.667-92.761v176.862c0 5.359 2.859 10.31 7.5 12.99z"/><path d="m271 209.325v185.522l153.167-88.431c4.641-2.68 7.5-7.631 7.5-12.99v-176.862l-65.334 37.72v35.82c-.735 19.875-29.267 19.871-30 0v-18.499z"/></g></svg>