<svg height="512" viewBox="0 0 32 32" width="512" xmlns="http://www.w3.org/2000/svg"><g id="_x30_5"><path d="m24 9h-1.2937012c-.1385498-.4650269-.3208618-.9110107-.5479126-1.3299561l.9126587-.9126587c.390564-.390564.390564-1.0237427 0-1.4142456l-1.4141846-1.4141846c-.3905029-.390564-1.0236816-.390564-1.4142456 0l-.9126587.9126587c-.4189453-.2270507-.8649291-.4093627-1.329956-.5479125v-1.2937012c0-.5523071-.4476929-1-1-1h-2c-.5523071 0-1 .4476929-1 1v1.2937012c-.4650269.1385498-.9110107.3208618-1.3299561.5479126l-.9126587-.9126587c-.390564-.390564-1.0237427-.390564-1.4142456 0l-1.4141845 1.4141845c-.390564.3905029-.390564 1.0236816 0 1.4142456l.9126587.9126587c-.2270508.4189454-.4093628.8649292-.5479126 1.3299561h-1.2937012c-.5523071 0-1 .4476929-1 1v2h5.1416626c-.0848389-.3204346-.1416626-.6519165-.1416626-1 0-2.2091675 1.7908325-4 4-4s4 1.7908325 4 4c0 .3474121-.0581665.6785889-.1414185 1h5.1414185v-2c0-.5523071-.4476929-1-1-1z"/><path d="m17 13h-13c-1.1045532 0-2 .8954468-2 2v7c0 1.1045532.8954468 2 2 2h5v1h-1c-.5527344 0-1 .4477539-1 1s.4472656 1 1 1h5c.5527344 0 1-.4477539 1-1s-.4472656-1-1-1h-1v-1h5c1.1045532 0 2-.8954468 2-2v-7c0-1.1045532-.8954468-2-2-2zm-7.1464844 7.1464844c.1953125.1953125.1953125.5117188 0 .7070313-.0976562.0976562-.2255859.1464843-.3535156.1464843s-.2558594-.0488281-.3535156-.1464844l-2-2c-.1953125-.1953125-.1953125-.5117188 0-.7070313l2-2c.1953125-.1953125.5117188-.1953125.7070313 0s.1953125.5117188 0 .7070313l-1.6464844 1.6464844zm4-1.2929688-2 2c-.0976562.0976563-.2255859.1464844-.3535156.1464844s-.2558594-.0488281-.3535156-.1464844c-.1953125-.1953125-.1953125-.5117188 0-.7070313l1.6464844-1.6464843-1.6464844-1.6464844c-.1953125-.1953125-.1953125-.5117188 0-.7070313s.5117188-.1953125.7070313 0l2 2c.1953124.1953126.1953124.5117188-.0000001.7070313z"/><path d="m20 16h10v2h-10z"/><path d="m30 15v-1c0-.5522461-.4472656-1-1-1h-8c-.5527344 0-1 .4477539-1 1v1z"/><path d="m20 19v10c0 .5522461.4472656 1 1 1h8c.5527344 0 1-.4477539 1-1v-10zm5 8c-.5523071 0-1-.4476929-1-1s.4476929-1 1-1 1 .4476929 1 1-.4476929 1-1 1z"/><path d="m19 11c0-1.6568604-1.3431396-3-3-3s-3 1.3431396-3 3c0 .3525391.0720215.685791.1837158 1h5.6325684c.1116943-.314209.1837158-.6474609.1837158-1z"/></g></svg>