<svg id="svg16" height="512" viewBox="0 0 24 24" width="512" xmlns="http://www.w3.org/2000/svg" xmlns:osb="http://www.openswatchbook.org/uri/2009/osb"><path id="path1057" d="m4.484375 5.9211064c-.12865466-.01791944-.2631198-.01033001-.39648438.02539063l-1.9316406.51757812c-.53342972.14298923-.8499138.69115107-.70703125 1.2246094l.12890625.48242188c.07080706.26638304-.08731825.53982625-.35351562.61132812l-.48242188.13085938c-.53342972.14298923-.84991381.69115107-.70703125 1.2246094l1.5527344 5.7949219c.14298923.53342973.69115106.8499138 1.2246094.70703126l.48242188-.12890626c.26701575-.072055.54180704.0863438.61328125.35351563l.12890625.48242187c.14298923.53342972.69115108.8499138 1.2246094.70703126l1.9316406-.51757813c.53342972-.14298923.84991381-.69115108.70703125-1.2246094l-.96625435-3.6049382c-.07149259-.26672724.07880658-.56529616.33942657-.65653092 1.2700051-.44458833 2.847668-.79126522 4.7264371-.79126522 1.8788129 0 3.4565055.34669302 4.7265258.79129625.26057042.0912194.41083051.38977265.33933792.65649989l-.96625434 3.6049382c-.14288257.53345829.17360153 1.0816201.70703124 1.2246094l1.9316406.51757813c.5334583.14288254 1.0816201-.17360154 1.2246094-.70703126l.12890626-.48242187c.0714742-.26717179.34626549-.42557059.61328124-.35351563l.48242188.12890626c.53345831.14288254 1.0816202-.17360153 1.2246094-.70703126l1.5527344-5.7949219c.14288256-.5334583-.17360153-1.0816201-.70703125-1.2246094l-.48242188-.13085938c-.26619738-.07150188-.42432268-.34494509-.35351562-.61132812l.12890625-.48242188c.14288255-.5334583-.17360153-1.0816201-.70703125-1.2246094l-1.9316406-.51757812c-.53345832-.14288256-1.0816202.17360153-1.2246094.70703125l-.84524566 3.1556967c-.07144561.26673983-.33863548.40330612-.59996722.31412019-1.4438169-.49273829-3.2073395-.86434813-5.2422871-.86434813-2.034986 0-3.798532.37162208-5.2423631.86437388-.26128932.089173-.52844559-.0474061-.5998912-.31414594l-.84524565-3.1556967c-.10724192-.40007229-.44216103-.67866354-.828125-.73242188z" font-feature-settings="normal" font-variant-alternates="normal" font-variant-caps="normal" font-variant-east-asian="normal" font-variant-ligatures="normal" font-variant-numeric="normal" font-variant-position="normal" font-variation-settings="normal" inline-size="0" isolation="auto" mix-blend-mode="normal" paint-order="fill markers stroke" shape-margin="0" shape-padding="0" solid-color="rgb(0,0,0)" text-decoration-color="rgb(0,0,0)" text-decoration-line="none" text-decoration-style="solid" text-indent="0" text-orientation="mixed" text-transform="none" white-space="normal"/></svg>