<?xml version="1.0" encoding="UTF-8"?>
<svg id="Layer_2" data-name="Layer 2" xmlns="http://www.w3.org/2000/svg" viewBox="0 0 479.68 199.74">
  <defs>
    <style>
      .cls-1 {
        fill: #fff;
      }

      .cls-2 {
        fill: #2e134d;
      }

      .cls-3 {
        fill: #a100ff;
      }
    </style>
  </defs>
  <g id="Layer_1-2" data-name="Layer 1">
    <g>
      <g>
        <path class="cls-3" d="M350.67,0h91.77C462.99,0,479.68,16.69,479.68,37.25v31.4c0,20.56-16.69,37.25-37.25,37.25h-129.02V37.25C313.42,16.69,330.11,0,350.67,0Z"/>
        <g>
          <path class="cls-1" d="M370.49,61.16c3.29-3.07,5.96-6.2,7.94-9.3,2.04-3.21,3.08-6.69,3.08-10.32,0-2.45-.44-4.73-1.32-6.78-.88-2.07-2.18-3.86-3.86-5.32-1.66-1.44-3.7-2.58-6.07-3.38-2.34-.8-5.01-1.2-7.91-1.2-6.06,0-10.96,1.69-14.55,5.03-3.59,3.34-5.6,8.12-5.97,14.19l-.08,1.36h11.74l.14-1.13c.41-3.38,1.35-5.8,2.77-7.19,1.4-1.37,3.25-2.04,5.66-2.04s3.96,.57,5.11,1.73c1.15,1.17,1.71,2.78,1.71,4.93s-.67,4.45-2,6.61c-1.41,2.29-3.39,4.74-5.88,7.27l-20.82,21.14v3.56h41.73v-10.08h-21.07l9.68-9.07Z"/>
          <path class="cls-1" d="M394.92,66.8c-2,0-3.73,.68-5.13,2.03s-2.17,3.21-2.14,5.13,.75,3.55,2.14,4.86c1.4,1.32,3.12,1.99,5.12,1.99s3.79-.67,5.19-1.99,2.17-3.17,2.15-5.08-.74-3.57-2.13-4.91c-1.4-1.35-3.16-2.04-5.21-2.04Z"/>
          <path class="cls-1" d="M451.25,40.45c-1.14-3.26-2.77-6.09-4.84-8.39-2.09-2.32-4.64-4.12-7.58-5.36-2.92-1.23-6.22-1.85-9.82-1.85s-6.89,.62-9.81,1.85c-2.94,1.24-5.5,3.05-7.61,5.39-2.1,2.33-3.75,5.19-4.88,8.5-1.13,3.28-1.7,7.01-1.7,11.07v2.63c0,4.06,.57,7.78,1.7,11.03,1.14,3.28,2.76,6.12,4.84,8.43,2.09,2.32,4.65,4.13,7.61,5.39,2.95,1.25,6.27,1.89,9.86,1.89s7.06-.65,10.02-1.93c2.96-1.28,5.51-3.13,7.57-5.47,2.05-2.33,3.64-5.2,4.73-8.51,1.07-3.28,1.62-7,1.62-11.05v-2.63c0-4.06-.57-7.77-1.7-11Zm-10.94,11.15v2.55c0,5.65-.95,9.92-2.81,12.71-1.78,2.66-4.48,3.96-8.25,3.96s-6.46-1.29-8.44-3.94c-2.04-2.73-3.08-6.96-3.08-12.58v-2.63c0-5.54,1.02-9.77,3.02-12.57,1.93-2.71,4.67-4.02,8.35-4.02s6.37,1.36,8.26,4.14c1.97,2.91,2.96,7.07,2.96,12.38Z"/>
        </g>
      </g>
      <g>
        <path class="cls-2" d="M172.28,91.87c-3.38-3.53-7.39-6.18-12.02-7.94s-9.67-2.65-15.11-2.65c-7.35,0-14.3,1.51-20.85,4.52-6.55,3.02-12.32,7.91-17.32,14.67-2.8-6.47-6.8-11.28-12.02-14.45-5.22-3.16-11.66-4.74-19.3-4.74-8.97,0-16.47,2.06-22.5,6.18-6.03,4.12-10.59,8.97-13.68,14.56v-17.65H0v115.37H39.49v-66.84c0-6.32,1.62-11.14,4.85-14.45,3.23-3.31,7.5-4.96,12.79-4.96,4.56,0,8.16,1.43,10.81,4.3,2.65,2.87,3.97,7.25,3.97,13.12v68.82h39.04v-66.84c0-6.32,1.62-11.14,4.85-14.45,3.23-3.31,7.5-4.96,12.79-4.96,4.56,0,8.16,1.43,10.81,4.3,2.65,2.87,3.97,7.25,3.97,13.12v68.82h39.49V124.3c0-7.2-.96-13.49-2.87-18.86-1.91-5.37-4.49-9.89-7.72-13.57Z"/>
        <polygon class="cls-2" points="313.42 163.29 264.03 163.29 252.05 163.29 252.05 42.01 210.66 42.01 210.66 163.29 210.66 199.74 264.03 199.74 274.54 199.74 313.42 199.74 313.42 163.29 313.42 163.29"/>
      </g>
    </g>
  </g>
</svg>